<svg width="32" height="32" viewBox="0 0 32 32" fill="none" xmlns="http://www.w3.org/2000/svg">
  <circle cx="16" cy="16" r="16" fill="#F7931A"/>
  <path d="M22.5 13.5C22.5 15.5 21 16.5 19 16.5V18.5C21.5 18.5 23.5 16.5 23.5 13.5C23.5 10.5 21.5 8.5 19 8.5V10.5C21 10.5 22.5 11.5 22.5 13.5Z" fill="white"/>
  <path d="M19 16.5C17 16.5 15.5 15 15.5 13C15.5 11 17 9.5 19 9.5V16.5Z" fill="white"/>
  <path d="M13 11H11V21H13V19H15C17 19 18.5 17.5 18.5 15.5C18.5 13.5 17 12 15 12H13V11Z" fill="white"/>
  <path d="M13 13H15C15.5 13 16 13.5 16 14C16 14.5 15.5 15 15 15H13V13Z" fill="white"/>
  <path d="M13 16H15.5C16 16 16.5 16.5 16.5 17C16.5 17.5 16 18 15.5 18H13V16Z" fill="white"/>
</svg>