<svg width="32" height="32" viewBox="0 0 32 32" fill="none" xmlns="http://www.w3.org/2000/svg">
  <defs>
    <linearGradient id="goGradient" x1="0%" y1="0%" x2="100%" y2="100%">
      <stop offset="0%" style="stop-color:#00add8;stop-opacity:1" />
      <stop offset="100%" style="stop-color:#5dc9e2;stop-opacity:1" />
    </linearGradient>
  </defs>
  <path d="M8 12c0-2.2 1.8-4 4-4h8c2.2 0 4 1.8 4 4v8c0 2.2-1.8 4-4 4h-8c-2.2 0-4-1.8-4-4v-8z" fill="url(#goGradient)"/>
  <path d="M12 10h8c1.1 0 2 .9 2 2v8c0 1.1-.9 2-2 2h-8c-1.1 0-2-.9-2-2v-8c0-1.1.9-2 2-2z" fill="white"/>
  <path d="M14 14h4v4h-4v-4z" fill="url(#goGradient)"/>
  <circle cx="16" cy="8" r="1.5" fill="url(#goGradient)"/>
  <path d="M12 6l2 2h4l2-2" stroke="url(#goGradient)" stroke-width="2" stroke-linecap="round"/>
</svg>