<svg width="24" height="24" viewBox="0 0 24 24" fill="none" xmlns="http://www.w3.org/2000/svg">
  <defs>
    <linearGradient id="chainGradient" x1="0%" y1="0%" x2="100%" y2="100%">
      <stop offset="0%" style="stop-color:#0ea5e9;stop-opacity:1" />
      <stop offset="100%" style="stop-color:#8b5cf6;stop-opacity:1" />
    </linearGradient>
  </defs>
  <path d="M8 6a2 2 0 012-2h4a2 2 0 012 2v4a2 2 0 01-2 2h-4a2 2 0 01-2-2V6zM8 14a2 2 0 012-2h4a2 2 0 012 2v4a2 2 0 01-2 2h-4a2 2 0 01-2-2v-4z" fill="url(#chainGradient)"/>
  <path d="M12 10v4" stroke="currentColor" stroke-width="2" stroke-linecap="round"/>
  <circle cx="6" cy="8" r="2" fill="url(#chainGradient)" opacity="0.5"/>
  <circle cx="18" cy="8" r="2" fill="url(#chainGradient)" opacity="0.5"/>
  <circle cx="6" cy="16" r="2" fill="url(#chainGradient)" opacity="0.5"/>
  <circle cx="18" cy="16" r="2" fill="url(#chainGradient)" opacity="0.5"/>
  <path d="M8 8h2m4 0h2M8 16h2m4 0h2" stroke="currentColor" stroke-width="1.5" stroke-linecap="round"/>
</svg>