<svg width="32" height="32" viewBox="0 0 32 32" fill="none" xmlns="http://www.w3.org/2000/svg">
  <defs>
    <linearGradient id="pythonGradient1" x1="0%" y1="0%" x2="100%" y2="100%">
      <stop offset="0%" style="stop-color:#3776ab;stop-opacity:1" />
      <stop offset="100%" style="stop-color:#ffd43b;stop-opacity:1" />
    </linearGradient>
  </defs>
  <path d="M15.9 2c-4.4 0-8 1.8-8 4v4h8v1H6c-2.2 0-4 1.8-4 4v6c0 2.2 1.8 4 4 4h2v-3c0-2.2 1.8-4 4-4h8c2.2 0 4-1.8 4-4V6c0-2.2-3.6-4-8-4h-8v0zm-2 3c.6 0 1 .4 1 1s-.4 1-1 1-1-.4-1-1 .4-1 1-1z" fill="url(#pythonGradient1)"/>
  <path d="M16.1 30c4.4 0 8-1.8 8-4v-4h-8v-1h10c2.2 0 4-1.8 4-4v-6c0-2.2-1.8-4-4-4h-2v3c0 2.2-1.8 4-4 4h-8c-2.2 0-4 1.8-4 4v6c0 2.2 3.6 4 8 4h8v0zm2-3c-.6 0-1-.4-1-1s.4-1 1-1 1 .4 1 1-.4 1-1 1z" fill="url(#pythonGradient1)" opacity="0.8"/>
</svg>