<svg width="32" height="32" viewBox="0 0 32 32" fill="none" xmlns="http://www.w3.org/2000/svg">
  <defs>
    <linearGradient id="rustGradient" x1="0%" y1="0%" x2="100%" y2="100%">
      <stop offset="0%" style="stop-color:#ce422b;stop-opacity:1" />
      <stop offset="100%" style="stop-color:#f74c00;stop-opacity:1" />
    </linearGradient>
  </defs>
  <circle cx="16" cy="16" r="14" fill="url(#rustGradient)"/>
  <path d="M16 8c-4.4 0-8 3.6-8 8s3.6 8 8 8 8-3.6 8-8-3.6-8-8-8zm0 14c-3.3 0-6-2.7-6-6s2.7-6 6-6 6 2.7 6 6-2.7 6-6 6z" fill="white"/>
  <circle cx="16" cy="16" r="3" fill="url(#rustGradient)"/>
  <path d="M16 4l2 4-2 2-2-4 2-2zm8 12l4-2-2-2-4 2 2 2zm-8 12l-2-4 2-2 2 4-2 2zm-8-12l-4 2 2 2 4-2-2-2z" fill="white"/>
</svg>